<svg width="128" height="128" viewBox="0 0 128 128" xmlns="http://www.w3.org/2000/svg">
  <defs>
    <linearGradient id="bg" x1="0" y1="0" x2="1" y2="1">
      <stop offset="0%" stop-color="#0d7377"/>
      <stop offset="100%" stop-color="#14396a"/>
    </linearGradient>
  </defs>
  <!-- Background -->
  <rect width="128" height="128" rx="24" fill="url(#bg)"/>
  <!-- Central hub circle -->
  <circle cx="64" cy="64" r="16" fill="none" stroke="#e0e6ed" stroke-width="3.5"/>
  <circle cx="64" cy="64" r="6" fill="#e0e6ed"/>
  <!-- Top node -->
  <line x1="64" y1="48" x2="64" y2="28" stroke="#e0e6ed" stroke-width="2.5" stroke-linecap="round"/>
  <rect x="52" y="18" width="24" height="14" rx="3" fill="#e0e6ed"/>
  <line x1="57" y1="23" x2="65" y2="23" stroke="#14396a" stroke-width="1.5" stroke-linecap="round"/>
  <line x1="57" y1="27" x2="71" y2="27" stroke="#14396a" stroke-width="1.5" stroke-linecap="round"/>
  <!-- Bottom node -->
  <line x1="64" y1="80" x2="64" y2="100" stroke="#e0e6ed" stroke-width="2.5" stroke-linecap="round"/>
  <rect x="52" y="96" width="24" height="14" rx="3" fill="#e0e6ed"/>
  <line x1="57" y1="101" x2="65" y2="101" stroke="#14396a" stroke-width="1.5" stroke-linecap="round"/>
  <line x1="57" y1="105" x2="71" y2="105" stroke="#14396a" stroke-width="1.5" stroke-linecap="round"/>
  <!-- Left node -->
  <line x1="48" y1="64" x2="28" y2="64" stroke="#e0e6ed" stroke-width="2.5" stroke-linecap="round"/>
  <rect x="14" y="57" width="18" height="14" rx="3" fill="#e0e6ed"/>
  <line x1="18" y1="62" x2="24" y2="62" stroke="#14396a" stroke-width="1.5" stroke-linecap="round"/>
  <line x1="18" y1="66" x2="28" y2="66" stroke="#14396a" stroke-width="1.5" stroke-linecap="round"/>
  <!-- Right node -->
  <line x1="80" y1="64" x2="100" y2="64" stroke="#e0e6ed" stroke-width="2.5" stroke-linecap="round"/>
  <rect x="96" y="57" width="18" height="14" rx="3" fill="#e0e6ed"/>
  <line x1="100" y1="62" x2="106" y2="62" stroke="#14396a" stroke-width="1.5" stroke-linecap="round"/>
  <line x1="100" y1="66" x2="110" y2="66" stroke="#14396a" stroke-width="1.5" stroke-linecap="round"/>
  <!-- Diagonal connections -->
  <line x1="52" y1="52" x2="36" y2="36" stroke="#4ecdc4" stroke-width="2" stroke-linecap="round" opacity="0.7"/>
  <circle cx="33" cy="33" r="5" fill="#4ecdc4" opacity="0.8"/>
  <line x1="76" y1="76" x2="92" y2="92" stroke="#4ecdc4" stroke-width="2" stroke-linecap="round" opacity="0.7"/>
  <circle cx="95" cy="95" r="5" fill="#4ecdc4" opacity="0.8"/>
</svg>
